<mxfile host="app.diagrams.net" agent="Mozilla/5.0 (Macintosh; Intel Mac OS X 10_15_7) AppleWebKit/537.36 (KHTML, like Gecko) Chrome/131.0.0.0 Safari/537.36" version="26.0.5">
  <diagram name="Page-1" id="rUauv2z7RrG4PCA9Cmv0">
    <mxGraphModel dx="970" dy="716" grid="1" gridSize="10" guides="1" tooltips="1" connect="1" arrows="1" fold="1" page="1" pageScale="1" pageWidth="1169" pageHeight="827" math="0" shadow="0">
      <root>
        <mxCell id="0" />
        <mxCell id="1" parent="0" />
        <mxCell id="Z5Ckkx-5ycJ0Q2VmZ3us-7" value="" style="edgeStyle=orthogonalEdgeStyle;rounded=0;sketch=1;hachureGap=4;jiggle=2;curveFitting=1;orthogonalLoop=1;jettySize=auto;html=1;fontFamily=Architects Daughter;fontSource=https%3A%2F%2Ffonts.googleapis.com%2Fcss%3Ffamily%3DArchitects%2BDaughter;fontSize=16;" parent="1" source="Z5Ckkx-5ycJ0Q2VmZ3us-2" target="Z5Ckkx-5ycJ0Q2VmZ3us-6" edge="1">
          <mxGeometry relative="1" as="geometry" />
        </mxCell>
        <mxCell id="Z5Ckkx-5ycJ0Q2VmZ3us-2" value="" style="shape=umlActor;verticalLabelPosition=bottom;verticalAlign=top;html=1;outlineConnect=0;sketch=1;hachureGap=4;jiggle=2;curveFitting=1;fontFamily=Architects Daughter;fontSource=https%3A%2F%2Ffonts.googleapis.com%2Fcss%3Ffamily%3DArchitects%2BDaughter;fontSize=20;" parent="1" vertex="1">
          <mxGeometry x="90" y="30" width="30" height="60" as="geometry" />
        </mxCell>
        <mxCell id="Z5Ckkx-5ycJ0Q2VmZ3us-9" value="" style="edgeStyle=orthogonalEdgeStyle;rounded=0;sketch=1;hachureGap=4;jiggle=2;curveFitting=1;orthogonalLoop=1;jettySize=auto;html=1;fontFamily=Architects Daughter;fontSource=https%3A%2F%2Ffonts.googleapis.com%2Fcss%3Ffamily%3DArchitects%2BDaughter;fontSize=16;" parent="1" source="Z5Ckkx-5ycJ0Q2VmZ3us-6" target="Z5Ckkx-5ycJ0Q2VmZ3us-8" edge="1">
          <mxGeometry relative="1" as="geometry" />
        </mxCell>
        <mxCell id="Z5Ckkx-5ycJ0Q2VmZ3us-6" value="App" style="whiteSpace=wrap;html=1;fontSize=20;fontFamily=Architects Daughter;verticalAlign=top;sketch=1;hachureGap=4;jiggle=2;curveFitting=1;fontSource=https%3A%2F%2Ffonts.googleapis.com%2Fcss%3Ffamily%3DArchitects%2BDaughter;" parent="1" vertex="1">
          <mxGeometry x="285" y="30" width="120" height="60" as="geometry" />
        </mxCell>
        <mxCell id="Z5Ckkx-5ycJ0Q2VmZ3us-11" value="" style="edgeStyle=orthogonalEdgeStyle;rounded=0;sketch=1;hachureGap=4;jiggle=2;curveFitting=1;orthogonalLoop=1;jettySize=auto;html=1;fontFamily=Architects Daughter;fontSource=https%3A%2F%2Ffonts.googleapis.com%2Fcss%3Ffamily%3DArchitects%2BDaughter;fontSize=16;" parent="1" source="Z5Ckkx-5ycJ0Q2VmZ3us-8" target="Z5Ckkx-5ycJ0Q2VmZ3us-10" edge="1">
          <mxGeometry relative="1" as="geometry" />
        </mxCell>
        <mxCell id="Z5Ckkx-5ycJ0Q2VmZ3us-8" value="Activation setup API" style="whiteSpace=wrap;html=1;fontSize=20;fontFamily=Architects Daughter;verticalAlign=top;sketch=1;hachureGap=4;jiggle=2;curveFitting=1;fontSource=https%3A%2F%2Ffonts.googleapis.com%2Fcss%3Ffamily%3DArchitects%2BDaughter;" parent="1" vertex="1">
          <mxGeometry x="285" y="225" width="120" height="60" as="geometry" />
        </mxCell>
        <mxCell id="Z5Ckkx-5ycJ0Q2VmZ3us-13" value="" style="edgeStyle=orthogonalEdgeStyle;rounded=0;sketch=1;hachureGap=4;jiggle=2;curveFitting=1;orthogonalLoop=1;jettySize=auto;html=1;fontFamily=Architects Daughter;fontSource=https%3A%2F%2Ffonts.googleapis.com%2Fcss%3Ffamily%3DArchitects%2BDaughter;fontSize=16;" parent="1" source="Z5Ckkx-5ycJ0Q2VmZ3us-10" target="Z5Ckkx-5ycJ0Q2VmZ3us-12" edge="1">
          <mxGeometry relative="1" as="geometry" />
        </mxCell>
        <mxCell id="Z5Ckkx-5ycJ0Q2VmZ3us-16" value="http" style="edgeLabel;html=1;align=center;verticalAlign=middle;resizable=0;points=[];fontSize=20;fontFamily=Architects Daughter;" parent="Z5Ckkx-5ycJ0Q2VmZ3us-13" vertex="1" connectable="0">
          <mxGeometry x="0.125" y="-1" relative="1" as="geometry">
            <mxPoint as="offset" />
          </mxGeometry>
        </mxCell>
        <mxCell id="Z5Ckkx-5ycJ0Q2VmZ3us-10" value="Due Diligence service?" style="whiteSpace=wrap;html=1;fontSize=20;fontFamily=Architects Daughter;verticalAlign=top;sketch=1;hachureGap=4;jiggle=2;curveFitting=1;fontSource=https%3A%2F%2Ffonts.googleapis.com%2Fcss%3Ffamily%3DArchitects%2BDaughter;" parent="1" vertex="1">
          <mxGeometry x="485" y="210" width="120" height="90" as="geometry" />
        </mxCell>
        <mxCell id="Z5Ckkx-5ycJ0Q2VmZ3us-15" style="edgeStyle=orthogonalEdgeStyle;rounded=0;sketch=1;hachureGap=4;jiggle=2;curveFitting=1;orthogonalLoop=1;jettySize=auto;html=1;fontFamily=Architects Daughter;fontSource=https%3A%2F%2Ffonts.googleapis.com%2Fcss%3Ffamily%3DArchitects%2BDaughter;fontSize=16;" parent="1" source="Z5Ckkx-5ycJ0Q2VmZ3us-12" target="Z5Ckkx-5ycJ0Q2VmZ3us-14" edge="1">
          <mxGeometry relative="1" as="geometry" />
        </mxCell>
        <mxCell id="Z5Ckkx-5ycJ0Q2VmZ3us-12" value="Bank Analyzer" style="whiteSpace=wrap;html=1;fontSize=20;fontFamily=Architects Daughter;verticalAlign=top;sketch=1;hachureGap=4;jiggle=2;curveFitting=1;fontSource=https%3A%2F%2Ffonts.googleapis.com%2Fcss%3Ffamily%3DArchitects%2BDaughter;" parent="1" vertex="1">
          <mxGeometry x="485" y="415" width="120" height="60" as="geometry" />
        </mxCell>
        <mxCell id="Z5Ckkx-5ycJ0Q2VmZ3us-14" value="Bank Data" style="shape=cylinder3;whiteSpace=wrap;html=1;boundedLbl=1;backgroundOutline=1;size=15;sketch=1;hachureGap=4;jiggle=2;curveFitting=1;fontFamily=Architects Daughter;fontSource=https%3A%2F%2Ffonts.googleapis.com%2Fcss%3Ffamily%3DArchitects%2BDaughter;fontSize=20;" parent="1" vertex="1">
          <mxGeometry x="300" y="405" width="60" height="80" as="geometry" />
        </mxCell>
        <mxCell id="Z5Ckkx-5ycJ0Q2VmZ3us-18" value="Data Extractors repo" style="text;html=1;strokeColor=none;fillColor=none;align=center;verticalAlign=middle;whiteSpace=wrap;rounded=0;fontSize=20;fontFamily=Architects Daughter;" parent="1" vertex="1">
          <mxGeometry x="130" y="430" width="60" height="30" as="geometry" />
        </mxCell>
        <mxCell id="Z5Ckkx-5ycJ0Q2VmZ3us-19" value="CBB" style="text;html=1;strokeColor=none;fillColor=none;align=center;verticalAlign=middle;whiteSpace=wrap;rounded=0;fontSize=20;fontFamily=Architects Daughter;" parent="1" vertex="1">
          <mxGeometry x="130" y="180" width="60" height="30" as="geometry" />
        </mxCell>
        <mxCell id="Z5Ckkx-5ycJ0Q2VmZ3us-23" value="" style="endArrow=none;dashed=1;html=1;dashPattern=1 3;strokeWidth=2;rounded=0;sketch=1;hachureGap=4;jiggle=2;curveFitting=1;fontFamily=Architects Daughter;fontSource=https%3A%2F%2Ffonts.googleapis.com%2Fcss%3Ffamily%3DArchitects%2BDaughter;fontSize=16;" parent="1" edge="1">
          <mxGeometry width="50" height="50" relative="1" as="geometry">
            <mxPoint x="80" y="160" as="sourcePoint" />
            <mxPoint x="680" y="160" as="targetPoint" />
          </mxGeometry>
        </mxCell>
        <mxCell id="Z5Ckkx-5ycJ0Q2VmZ3us-24" value="" style="endArrow=none;dashed=1;html=1;dashPattern=1 3;strokeWidth=2;rounded=0;sketch=1;hachureGap=4;jiggle=2;curveFitting=1;fontFamily=Architects Daughter;fontSource=https%3A%2F%2Ffonts.googleapis.com%2Fcss%3Ffamily%3DArchitects%2BDaughter;fontSize=16;" parent="1" edge="1">
          <mxGeometry width="50" height="50" relative="1" as="geometry">
            <mxPoint x="80" y="340" as="sourcePoint" />
            <mxPoint x="680" y="340" as="targetPoint" />
          </mxGeometry>
        </mxCell>
      </root>
    </mxGraphModel>
  </diagram>
</mxfile>
